<svg id="visual" viewBox="0 0 900 600" width="900" height="600" xmlns="http://www.w3.org/2000/svg" xmlns:xlink="http://www.w3.org/1999/xlink" version="1.1"><path d="M0 385L21.5 392.7C43 400.3 86 415.7 128.8 421.8C171.7 428 214.3 425 257.2 412.8C300 400.7 343 379.3 385.8 369.5C428.7 359.7 471.3 361.3 514.2 373.5C557 385.7 600 408.3 642.8 419.3C685.7 430.3 728.3 429.7 771.2 420.8C814 412 857 395 878.5 386.5L900 378L900 601L878.5 601C857 601 814 601 771.2 601C728.3 601 685.7 601 642.8 601C600 601 557 601 514.2 601C471.3 601 428.7 601 385.8 601C343 601 300 601 257.2 601C214.3 601 171.7 601 128.8 601C86 601 43 601 21.5 601L0 601Z" fill="#a9cec2"></path><path d="M0 440L21.5 435C43 430 86 420 128.8 415C171.7 410 214.3 410 257.2 410.5C300 411 343 412 385.8 412.3C428.7 412.7 471.3 412.3 514.2 412.2C557 412 600 412 642.8 417.8C685.7 423.7 728.3 435.3 771.2 445.2C814 455 857 463 878.5 467L900 471L900 601L878.5 601C857 601 814 601 771.2 601C728.3 601 685.7 601 642.8 601C600 601 557 601 514.2 601C471.3 601 428.7 601 385.8 601C343 601 300 601 257.2 601C214.3 601 171.7 601 128.8 601C86 601 43 601 21.5 601L0 601Z" fill="#96d0bd"></path><path d="M0 482L21.5 474.7C43 467.3 86 452.7 128.8 457.2C171.7 461.7 214.3 485.3 257.2 489C300 492.7 343 476.3 385.8 467.7C428.7 459 471.3 458 514.2 466.3C557 474.7 600 492.3 642.8 498.7C685.7 505 728.3 500 771.2 492.7C814 485.3 857 475.7 878.5 470.8L900 466L900 601L878.5 601C857 601 814 601 771.2 601C728.3 601 685.7 601 642.8 601C600 601 557 601 514.2 601C471.3 601 428.7 601 385.8 601C343 601 300 601 257.2 601C214.3 601 171.7 601 128.8 601C86 601 43 601 21.5 601L0 601Z" fill="#82d2b8"></path><path d="M0 529L21.5 528.2C43 527.3 86 525.7 128.8 527.8C171.7 530 214.3 536 257.2 535.7C300 535.3 343 528.7 385.8 522.2C428.7 515.7 471.3 509.3 514.2 505.2C557 501 600 499 642.8 495.5C685.7 492 728.3 487 771.2 485.2C814 483.3 857 484.7 878.5 485.3L900 486L900 601L878.5 601C857 601 814 601 771.2 601C728.3 601 685.7 601 642.8 601C600 601 557 601 514.2 601C471.3 601 428.7 601 385.8 601C343 601 300 601 257.2 601C214.3 601 171.7 601 128.8 601C86 601 43 601 21.5 601L0 601Z" fill="#6cd4b2"></path><path d="M0 528L21.5 535.7C43 543.3 86 558.7 128.8 565.3C171.7 572 214.3 570 257.2 569C300 568 343 568 385.8 565.8C428.7 563.7 471.3 559.3 514.2 560.2C557 561 600 567 642.8 565C685.7 563 728.3 553 771.2 551.5C814 550 857 557 878.5 560.5L900 564L900 601L878.5 601C857 601 814 601 771.2 601C728.3 601 685.7 601 642.8 601C600 601 557 601 514.2 601C471.3 601 428.7 601 385.8 601C343 601 300 601 257.2 601C214.3 601 171.7 601 128.8 601C86 601 43 601 21.5 601L0 601Z" fill="#52d5ab"></path></svg>